<?xml version="1.0" encoding="UTF-8"?>
<svg id="Capa_1" xmlns="http://www.w3.org/2000/svg" version="1.1" xmlns:xlink="http://www.w3.org/1999/xlink" viewBox="0 0 1080 423.59">
  <!-- Generator: Adobe Illustrator 29.3.1, SVG Export Plug-In . SVG Version: 2.1.0 Build 151)  -->
  <defs>
    <style>
      .st0 {
        fill: url(#Degradado_sin_nombre_73);
      }

      .st1 {
        fill: #fff;
      }

      .st2 {
        fill: url(#Degradado_sin_nombre_74);
      }

      .st3 {
        fill: url(#Degradado_sin_nombre_71);
      }

      .st4 {
        fill: url(#Degradado_sin_nombre_72);
      }

      .st5 {
        fill: url(#Degradado_sin_nombre_7);
      }
    </style>
    <linearGradient id="Degradado_sin_nombre_7" data-name="Degradado sin nombre 7" x1="-82.27" y1="18.38" x2="364.14" y2="517.48" gradientUnits="userSpaceOnUse">
      <stop offset="0" stop-color="#acdaab"/>
      <stop offset="1" stop-color="#83b383"/>
    </linearGradient>
    <linearGradient id="Degradado_sin_nombre_71" data-name="Degradado sin nombre 7" x1="-26.12" y1="-31.85" x2="420.3" y2="467.24" xlink:href="#Degradado_sin_nombre_7"/>
    <linearGradient id="Degradado_sin_nombre_72" data-name="Degradado sin nombre 7" x1="23.54" y1="-76.27" x2="469.95" y2="422.83" xlink:href="#Degradado_sin_nombre_7"/>
    <linearGradient id="Degradado_sin_nombre_73" data-name="Degradado sin nombre 7" x1="130.4" y1="-171.85" x2="576.82" y2="327.25" xlink:href="#Degradado_sin_nombre_7"/>
    <linearGradient id="Degradado_sin_nombre_74" data-name="Degradado sin nombre 7" x1="-92.68" y1="27.68" x2="353.74" y2="526.78" xlink:href="#Degradado_sin_nombre_7"/>
  </defs>
  <g>
    <path class="st5" d="M177.15,196.45l-54.41,54.4v69.64h-.04c-3.23,0-6.41-.21-9.51-.59-11.88-1.44-22.92-5.52-32.51-11.71-3.1-1.95-6.03-4.12-8.78-6.49-7.51-6.45-13.83-14.34-18.46-23.21-2.08-3.99-3.86-8.19-5.22-12.6-2.33-7.43-3.61-15.32-3.61-23.51,0-1.99.08-3.99.25-5.98,1.06-14.51,6.11-27.92,14.09-39.13.68-.98,1.4-1.99,2.16-2.93,1.95-2.55,4.12-4.97,6.37-7.21l50.16-50.16,59.5,59.5Z"/>
    <path class="st3" d="M145.81,49.29l-103.97,103.97c-3.18-2.29-6.15-4.88-8.87-7.68-2.25-2.21-4.29-4.54-6.15-7.04-3.23-4.16-6.03-8.66-8.28-13.45-4.41-9.34-6.96-19.69-7.09-30.68-.04-.38-.04-.72-.04-1.1,0-1.02,0-2.04.08-3.01.08-2.46.3-4.92.64-7.3,1.87-13.54,7.38-25.89,15.53-36.03,1.66-2.12,3.44-4.12,5.35-6.03,5.9-5.98,12.86-10.95,20.5-14.64,2.97-1.44,6.07-2.72,9.25-3.73,7.26-2.38,14.98-3.65,23.04-3.65.38,0,.72,0,1.1.04,2.93,0,5.81.21,8.66.59,13.28,1.74,25.42,6.96,35.52,14.73,2.29,1.78,4.5,3.65,6.54,5.69.17.13.34.3.51.47s.34.3.51.51c2.59,2.59,4.97,5.39,7.17,8.36Z"/>
    <path class="st4" d="M236.65,196.45l54.41,54.4v69.64h.04c3.23,0,6.41-.21,9.51-.59,11.88-1.44,22.92-5.52,32.51-11.71,3.1-1.95,6.03-4.12,8.78-6.49,7.51-6.45,13.83-14.34,18.46-23.21,2.08-3.99,3.86-8.19,5.22-12.6,2.33-7.43,3.61-15.32,3.61-23.51,0-1.99-.08-3.99-.25-5.98-1.06-14.51-6.11-27.92-14.09-39.13-.68-.98-1.4-1.99-2.16-2.93-1.95-2.55-4.12-4.97-6.37-7.21l-50.16-50.16-59.5,59.5Z"/>
    <path class="st0" d="M267.99,49.29l103.97,103.97c3.18-2.29,6.15-4.88,8.87-7.68,2.25-2.21,4.29-4.54,6.15-7.04,3.23-4.16,6.03-8.66,8.28-13.45,4.41-9.34,6.96-19.69,7.09-30.68.04-.38.04-.72.04-1.1,0-1.02,0-2.04-.08-3.01-.08-2.46-.3-4.92-.64-7.3-1.87-13.54-7.38-25.89-15.53-36.03-1.66-2.12-3.44-4.12-5.35-6.03-5.9-5.98-12.86-10.95-20.5-14.64-2.97-1.44-6.07-2.72-9.25-3.73-7.26-2.38-14.98-3.65-23.04-3.65-.38,0-.72,0-1.1.04-2.93,0-5.81.21-8.66.59-13.28,1.74-25.42,6.96-35.52,14.73-2.29,1.78-4.5,3.65-6.54,5.69-.17.13-.34.3-.51.47s-.34.3-.51.51c-2.59,2.59-4.97,5.39-7.17,8.36Z"/>
    <path class="st2" d="M291.05,320.53c0,14.26-3.56,27.71-9.85,39.47-.42.89-.93,1.74-1.44,2.59-6.62,11.5-15.91,21.26-26.99,28.48-1.23.85-2.5,1.61-3.82,2.33-12.35,7.17-26.74,11.29-42.01,11.29h-84.2v-84.15h168.31Z"/>
  </g>
  <g>
    <path class="st1" d="M557.25,337.84c-5.48,0-11.76-.51-18.84-1.54-7.08-1.03-13.87-3.37-20.38-7.02-6.51-3.65-11.88-9.19-16.1-16.61-4.23-7.42-6.34-17.64-6.34-30.66v-141.45c0-11.19,1.71-20.55,5.13-28.09,3.43-7.54,7.99-13.47,13.7-17.81,5.71-4.34,11.99-7.42,18.84-9.25,6.85-1.83,13.58-2.74,20.21-2.74,17.13,0,32.25.23,45.38.69,13.13.46,24.94.97,35.45,1.54,10.5.57,20.09,1.32,28.77,2.23v42.47h-94.53c-7.08,0-12.56,1.71-16.44,5.14-3.89,3.43-5.82,8.68-5.82,15.75v36.65l100.36,2.74v40.07l-100.36,2.74v34.94c0,5.94.97,10.56,2.91,13.87,1.94,3.31,4.56,5.6,7.88,6.85,3.31,1.26,6.79,1.88,10.45,1.88h95.56v42.47c-10.05,1.14-21.18,2.06-33.4,2.74-12.22.69-24.55,1.25-36.99,1.71-12.45.46-24.26.69-35.45.69Z"/>
    <path class="st1" d="M760.97,338.19c-11.19,0-21.52-1.49-31-4.46-9.48-2.96-17.64-7.93-24.49-14.9-6.85-6.96-12.16-16.44-15.93-28.43-3.77-11.99-5.65-27.11-5.65-45.38s1.71-34.25,5.14-46.58c3.43-12.33,8.5-22.09,15.24-29.29,6.73-7.19,15.01-12.27,24.83-15.24,9.81-2.97,20.89-4.45,33.22-4.45,11.19,0,21.86.63,32.03,1.88,10.16,1.26,20.83,3.48,32.03,6.68v29.11h-48.29c-10.51,0-18.96,1.54-25.35,4.62-6.39,3.08-11.02,8.79-13.87,17.13-2.86,8.34-4.28,20.27-4.28,35.79s1.42,26.95,4.28,34.94c2.85,7.99,7.54,13.36,14.04,16.1,6.51,2.74,15.12,4.11,25.86,4.11h50.35v28.77c-5.71,1.83-12.33,3.48-19.87,4.97-7.54,1.49-15.47,2.62-23.8,3.43-8.34.8-16.5,1.2-24.49,1.2Z"/>
    <path class="st1" d="M844.85,336.13l79.46-253.46h64.05l79.46,253.46h-52.75l-16.1-53.09h-86.32l-15.75,53.09h-52.06ZM924.65,237.49h62.34l-31.17-111.32-31.17,111.32Z"/>
  </g>
</svg>